<svg xmlns="http://www.w3.org/2000/svg" version="1.1" xmlns:xlink="http://www.w3.org/1999/xlink" xmlns:svgjs="http://svgjs.dev/svgjs" width="1000" height="366" viewBox="0 0 1000 366"><g transform="matrix(1,0,0,1,-0.6060682715191206,0.5174234675477862)"><svg viewBox="0 0 396 145" data-background-color="#ffffff" preserveAspectRatio="xMidYMid meet" height="366" width="1000" xmlns="http://www.w3.org/2000/svg" xmlns:xlink="http://www.w3.org/1999/xlink"><g id="tight-bounds" transform="matrix(1,0,0,1,0.24000303552156765,-0.2049901715694773)"><svg viewBox="0 0 395.52 145.40998034313895" height="145.40998034313895" width="395.52"><g><svg viewBox="0 0 667.9654469685647 245.57251849108775" height="145.40998034313895" width="395.52"><g transform="matrix(1,0,0,1,270.46784696856486,48.30748332983568)"><svg viewBox="0 0 397.4975999999999 148.9575518314164" height="148.9575518314164" width="397.4975999999999"><g><svg viewBox="0 0 397.4975999999999 148.9575518314164" height="148.9575518314164" width="397.4975999999999"><g><rect width="397.4975999999999" height="9.479074124391802" x="0" y="116.27806588792713" fill="#755bb4" opacity="1" stroke-width="0" stroke="transparent" fill-opacity="1" class="rect-o-0" data-fill-palette-color="primary" rx="1%" id="o-0" data-palette-color="#755bb4"></rect></g><g transform="matrix(1,0,0,1,0.9887999999999693,0)"><svg viewBox="0 0 395.52 105.11161731207291" height="105.11161731207291" width="395.52"><g transform="matrix(1,0,0,1,0,0)"><svg width="395.52" viewBox="1.75 -34.29999923706055 131.69000244140625 35" height="105.11161731207291" data-palette-color="#755bb4"><g class="undefined-text-0" data-fill-palette-color="primary" id="text-0"><path d="M37.85-7.2L40.95-2.9Q39.55-1.3 37.8-0.3 36.05 0.7 33.5 0.7L33.5 0.7Q28.9 0.7 25.83-2.53 22.75-5.75 21.05-12.55L21.05-12.55 20.55-14.15 14.4-14.15 14.4-5.2 20.25-5.2 20.25 0 1.75 0 1.75-5.25 7.75-5.25 7.75-29.05 1.75-29.05 1.75-34.3 21.95-34.3Q28-34.3 31.58-31.63 35.15-28.95 35.15-24.25L35.15-24.25Q35.15-20.35 32.88-17.85 30.6-15.35 26.4-14.5L26.4-14.5 26.95-12.95Q28.3-8.85 30.03-7.13 31.75-5.4 33.9-5.4L33.9-5.4Q36.15-5.4 37.85-7.2L37.85-7.2ZM14.4-29.05L14.4-19.05 22.15-19.05Q24.8-19.05 26.7-20.38 28.6-21.7 28.6-24.25L28.6-24.25Q28.6-26.6 26.75-27.83 24.9-29.05 22.15-29.05L22.15-29.05 14.4-29.05ZM60.3-29.05L54.25-29.05 54.25-5.25 60.3-5.25 60.3 0 41.6 0 41.6-5.25 47.6-5.25 47.6-29.05 41.6-29.05 41.6-34.3 60.3-34.3 60.3-29.05ZM63.75-34.3L97.25-34.3 97.25-22.05 91.4-22.05 91.4-29.05 76.25-29.05 76.25-19.05 82.5-19.05 82.5-23.35 87.45-23.35 87.45-10 82.5-10 82.5-14.3 76.25-14.3 76.25-5.25 82.7-5.25 82.7 0 63.75 0 63.75-5.25 69.75-5.25 69.75-29.05 63.75-29.05 63.75-34.3ZM127.19-13.15L133.44-13.15 133.44 0 100.69 0 100.69-5.25 106.69-5.25 106.69-29.05 100.69-29.05 100.69-34.3 119.29-34.3 119.29-29.05 113.29-29.05 113.29-5.25 127.19-5.25 127.19-13.15Z" fill="#755bb4" data-fill-palette-color="primary"></path></g></svg></g></svg></g><g transform="matrix(1,0,0,1,0,136.92358858817315)"><svg viewBox="0 0 232.20979200000002 12.033963243243246" height="12.033963243243246" width="232.20979200000002"><g transform="matrix(1,0,0,1,0,0)"><svg width="232.20979200000002" viewBox="0.6000000238418579 -38.29999923706055 762.1000366210938 39.5" height="12.033963243243246" data-palette-color="#755bb4"><path d="M13.8-1.6Q12.25-1.6 10.53-1.5 8.8-1.4 7.05-1.2 5.3-1 3.63-0.68 1.95-0.35 0.6 0.1L0.6 0.1Q0.9-2.15 1.3-4.9 1.7-7.65 2.23-10.6 2.75-13.55 3.28-16.55 3.8-19.55 4.35-22.3L4.35-22.3Q5.6-28.85 7-35.65L7-35.65 15.75-36.8Q14.4-31 13.15-25.5L13.15-25.5Q12.6-23.15 12.05-20.63 11.5-18.1 11-15.7 10.5-13.3 10.1-11.05 9.7-8.8 9.45-7.05L9.45-7.05Q10.7-7.15 12.13-7.18 13.55-7.2 14.65-7.2L14.65-7.2Q14.7-6.25 14.8-5.33 14.9-4.4 15.03-3.65 15.15-2.9 15.23-2.33 15.3-1.75 15.35-1.55L15.35-1.55Q14.95-1.55 14.58-1.58 14.2-1.6 13.8-1.6L13.8-1.6ZM31.65-2.45L15.5 0.05 22.05-35.5 37.85-36.85Q37.5-35.75 37.25-34.6L37.25-34.6Q37-33.65 36.77-32.63 36.55-31.6 36.4-30.8L36.4-30.8Q35.9-30.75 34.97-30.73 34.05-30.7 33-30.68 31.95-30.65 30.87-30.65 29.8-30.65 29-30.65L29-30.65 27.25-21.7Q28.8-21.8 30.15-21.85L30.15-21.85Q31.25-21.9 32.4-21.9 33.55-21.9 34.1-21.95L34.1-21.95Q33.9-20.55 33.72-19.2 33.55-17.85 33.3-16.45L33.3-16.45Q32.8-16.4 31.67-16.38 30.55-16.35 29.4-16.3L29.4-16.3Q28.1-16.25 26.55-16.2L26.55-16.2 24.85-7 32.15-8.15 31.65-2.45ZM50.55-1Q49.3-0.8 47.8-0.55 46.3-0.3 45.1-0.1L45.1-0.1Q45.3-1.75 45.5-3.35L45.5-3.35Q45.65-4.75 45.77-6.15 45.9-7.55 46-8.55L46-8.55 41.65-8.55 39.65-1.35Q38.55-1.2 37.05-1.03 35.55-0.85 34.25-0.7L34.25-0.7Q32.65-0.5 31.1-0.3L31.1-0.3Q33.1-6.95 35.05-13.4L35.05-13.4Q35.85-16.1 36.72-19.05 37.6-22 38.47-24.93 39.35-27.85 40.15-30.55 40.95-33.25 41.55-35.5L41.55-35.5Q44.95-35.75 48.47-36.1 52-36.45 55.35-37.05L55.35-37.05Q55.2-35.45 55.02-33.08 54.85-30.7 54.7-27.9 54.55-25.1 54.4-22.05 54.25-19 54.1-16.05L54.1-16.05Q53.85-9.15 53.55-1.4L53.55-1.4Q52.05-1.15 50.55-1L50.55-1ZM45.95-26.1L42.85-13.55Q43.05-13.55 43.57-13.58 44.1-13.6 44.67-13.63 45.25-13.65 45.75-13.68 46.25-13.7 46.45-13.75L46.45-13.75Q46.45-14.05 46.52-14.78 46.6-15.5 46.67-16.43 46.75-17.35 46.85-18.45 46.95-19.55 47.05-20.6L47.05-20.6Q47.25-23.15 47.55-26.1L47.55-26.1 47.85-30.45 47.1-30.4 45.95-26.1ZM62.09-2.05L53.99 0.05Q55.34-6.6 56.59-12.95L56.59-12.95Q57.04-15.65 57.59-18.57 58.14-21.5 58.62-24.38 59.09-27.25 59.52-29.93 59.94-32.6 60.19-34.8L60.19-34.8Q63.04-35.7 66.34-36.13 69.64-36.55 72.89-36.55L72.89-36.55Q74.84-36.55 76.12-36.1 77.39-35.65 78.12-34.83 78.84-34 79.14-32.9 79.44-31.8 79.44-30.45L79.44-30.45Q79.44-28.45 78.74-26.53 78.04-24.6 76.87-22.88 75.69-21.15 74.17-19.73 72.64-18.3 70.89-17.4L70.89-17.4Q71.79-15.4 72.82-13.03 73.84-10.65 74.74-8.5L74.74-8.5Q75.74-6 76.79-3.5L76.79-3.5 69.04-0.8Q68.04-4 67.24-6.8L67.24-6.8Q66.89-7.95 66.54-9.18 66.19-10.4 65.89-11.5 65.59-12.6 65.39-13.48 65.19-14.35 65.14-14.9L65.14-14.9 64.49-14.7Q64.19-13.1 63.77-10.95 63.34-8.8 62.99-6.8L62.99-6.8Q62.54-4.45 62.09-2.05L62.09-2.05ZM67.34-29.6L65.74-21.65Q66.69-21.75 68.07-22.45 69.44-23.15 70.69-24.13 71.94-25.1 72.84-26.15 73.74-27.2 73.74-28L73.74-28Q73.74-28.55 73.39-28.88 73.04-29.2 72.42-29.38 71.79-29.55 71.04-29.6 70.29-29.65 69.49-29.65L69.49-29.65Q68.94-29.65 68.37-29.63 67.79-29.6 67.34-29.6L67.34-29.6ZM83.54-1.45L76.24 0.25Q77.74-6.95 79.09-13.7L79.09-13.7Q79.59-16.6 80.17-19.7 80.74-22.8 81.24-25.83 81.74-28.85 82.14-31.63 82.54-34.4 82.74-36.65L82.74-36.65Q83.39-36.6 83.84-36.6 84.29-36.6 84.89-36.6L84.89-36.6Q85.59-36.6 86.59-36.63 87.59-36.65 88.59-36.7 89.59-36.75 90.74-36.8L90.74-36.8Q91.44-33.3 91.99-30.05L91.99-30.05Q92.54-27.2 93.12-24.2 93.69-21.2 94.14-19.1L94.14-19.1Q94.34-20.1 94.59-21.43 94.84-22.75 95.14-24.2 95.44-25.65 95.72-27.13 95.99-28.6 96.29-30.05L96.29-30.05Q96.99-33.3 97.74-36.75L97.74-36.75 103.84-37.5Q102.14-29.85 100.84-23L100.84-23Q100.24-20.05 99.67-17.03 99.09-14 98.59-11.23 98.09-8.45 97.74-6.08 97.39-3.7 97.19-2.1L97.19-2.1Q97.04-2.1 96.02-1.88 94.99-1.65 93.67-1.35 92.34-1.05 91.02-0.75 89.69-0.45 89.04-0.2L89.04-0.2Q88.74-4.2 88.39-7.8L88.39-7.8Q88.24-9.35 88.07-10.98 87.89-12.6 87.69-14.1 87.49-15.6 87.29-16.9 87.09-18.2 86.89-19.15L86.89-19.15Q86.74-18.2 86.49-16.95 86.24-15.7 85.99-14.3 85.74-12.9 85.49-11.38 85.24-9.85 84.94-8.45L84.94-8.45Q84.29-5.1 83.54-1.45L83.54-1.45ZM122.64-13.3Q122.19-11.1 121.54-8.72 120.89-6.35 119.81-4.42 118.74-2.5 117.21-1.23 115.69 0.05 113.59 0.05L113.59 0.05Q112.19 0.05 110.56-0.55 108.94-1.15 106.99-2.6L106.99-2.6 110.44-10.3Q110.69-9.8 111.41-9.43 112.14-9.05 112.99-9.05L112.99-9.05Q113.59-9.05 114.06-10.05 114.54-11.05 114.89-12.38 115.24-13.7 115.44-15.1 115.64-16.5 115.74-17.35L115.74-17.35Q116.69-22.2 117.54-27.03 118.39-31.85 119.54-36.65L119.54-36.65Q121.79-36.85 123.96-37.27 126.14-37.7 128.34-38.3L128.34-38.3Q127.59-35.75 126.79-32.5 125.99-29.25 125.24-25.85 124.49-22.45 123.81-19.18 123.14-15.9 122.64-13.3L122.64-13.3ZM140.68-1Q139.43-0.8 137.93-0.55 136.43-0.3 135.23-0.1L135.23-0.1Q135.43-1.75 135.63-3.35L135.63-3.35Q135.78-4.75 135.91-6.15 136.03-7.55 136.13-8.55L136.13-8.55 131.78-8.55 129.78-1.35Q128.68-1.2 127.18-1.03 125.68-0.85 124.38-0.7L124.38-0.7Q122.78-0.5 121.23-0.3L121.23-0.3Q123.23-6.95 125.18-13.4L125.18-13.4Q125.98-16.1 126.86-19.05 127.73-22 128.61-24.93 129.48-27.85 130.28-30.55 131.08-33.25 131.68-35.5L131.68-35.5Q135.08-35.75 138.61-36.1 142.13-36.45 145.48-37.05L145.48-37.05Q145.33-35.45 145.16-33.08 144.98-30.7 144.83-27.9 144.68-25.1 144.53-22.05 144.38-19 144.23-16.05L144.23-16.05Q143.98-9.15 143.68-1.4L143.68-1.4Q142.18-1.15 140.68-1L140.68-1ZM136.08-26.1L132.98-13.55Q133.18-13.55 133.71-13.58 134.23-13.6 134.81-13.63 135.38-13.65 135.88-13.68 136.38-13.7 136.58-13.75L136.58-13.75Q136.58-14.05 136.66-14.78 136.73-15.5 136.81-16.43 136.88-17.35 136.98-18.45 137.08-19.55 137.18-20.6L137.18-20.6Q137.38-23.15 137.68-26.1L137.68-26.1 137.98-30.45 137.23-30.4 136.08-26.1ZM152.43-1.65L143.78 0.05Q145.28-6.7 146.63-13.15L146.63-13.15Q147.18-15.85 147.78-18.85 148.38-21.85 148.93-24.75 149.48-27.65 149.98-30.35 150.48-33.05 150.83-35.3L150.83-35.3Q152.28-35.75 153.68-36.08 155.08-36.4 156.56-36.65 158.03-36.9 159.33-36.9L159.33-36.9Q161.58-36.9 163.11-36.15 164.63-35.4 165.58-34.13 166.53-32.85 166.93-31.15 167.33-29.45 167.33-27.5L167.33-27.5Q167.33-24.7 166.31-22.1 165.28-19.5 163.56-17.48 161.83-15.45 159.61-14.25 157.38-13.05 154.98-13.05L154.98-13.05 154.43-13.05Q154.03-11.35 153.68-9.35 153.33-7.35 153.08-5.65L153.08-5.65Q152.73-3.65 152.43-1.65L152.43-1.65ZM157.73-30.85Q157.18-27.55 156.63-24.6 156.08-21.65 155.43-18.3L155.43-18.3Q156.23-18.5 157.11-19.23 157.98-19.95 158.73-21.13 159.48-22.3 159.93-23.85 160.38-25.4 160.38-27.1L160.38-27.1Q160.38-28.95 159.56-29.9 158.73-30.85 157.73-30.85L157.73-30.85ZM181.28-1Q180.03-0.8 178.53-0.55 177.03-0.3 175.83-0.1L175.83-0.1Q176.03-1.75 176.23-3.35L176.23-3.35Q176.38-4.75 176.5-6.15 176.63-7.55 176.73-8.55L176.73-8.55 172.38-8.55 170.38-1.35Q169.28-1.2 167.78-1.03 166.28-0.85 164.98-0.7L164.98-0.7Q163.38-0.5 161.83-0.3L161.83-0.3Q163.83-6.95 165.78-13.4L165.78-13.4Q166.58-16.1 167.45-19.05 168.33-22 169.2-24.93 170.08-27.85 170.88-30.55 171.68-33.25 172.28-35.5L172.28-35.5Q175.68-35.75 179.2-36.1 182.73-36.45 186.08-37.05L186.08-37.05Q185.93-35.45 185.75-33.08 185.58-30.7 185.43-27.9 185.28-25.1 185.13-22.05 184.98-19 184.83-16.05L184.83-16.05Q184.58-9.15 184.28-1.4L184.28-1.4Q182.78-1.15 181.28-1L181.28-1ZM176.68-26.1L173.58-13.55Q173.78-13.55 174.3-13.58 174.83-13.6 175.4-13.63 175.98-13.65 176.48-13.68 176.98-13.7 177.18-13.75L177.18-13.75Q177.18-14.05 177.25-14.78 177.33-15.5 177.4-16.43 177.48-17.35 177.58-18.45 177.68-19.55 177.78-20.6L177.78-20.6Q177.98-23.15 178.28-26.1L178.28-26.1 178.58-30.45 177.83-30.4 176.68-26.1ZM192.08-1.45L184.78 0.25Q186.28-6.95 187.63-13.7L187.63-13.7Q188.13-16.6 188.7-19.7 189.28-22.8 189.78-25.83 190.28-28.85 190.68-31.63 191.08-34.4 191.28-36.65L191.28-36.65Q191.93-36.6 192.38-36.6 192.83-36.6 193.43-36.6L193.43-36.6Q194.13-36.6 195.13-36.63 196.13-36.65 197.13-36.7 198.13-36.75 199.28-36.8L199.28-36.8Q199.97-33.3 200.53-30.05L200.53-30.05Q201.08-27.2 201.65-24.2 202.22-21.2 202.68-19.1L202.68-19.1Q202.88-20.1 203.13-21.43 203.38-22.75 203.68-24.2 203.98-25.65 204.25-27.13 204.53-28.6 204.83-30.05L204.83-30.05Q205.53-33.3 206.28-36.75L206.28-36.75 212.38-37.5Q210.68-29.85 209.38-23L209.38-23Q208.78-20.05 208.2-17.03 207.63-14 207.13-11.23 206.63-8.45 206.28-6.08 205.93-3.7 205.73-2.1L205.73-2.1Q205.58-2.1 204.55-1.88 203.53-1.65 202.2-1.35 200.88-1.05 199.55-0.75 198.22-0.45 197.58-0.2L197.58-0.2Q197.28-4.2 196.93-7.8L196.93-7.8Q196.78-9.35 196.6-10.98 196.43-12.6 196.22-14.1 196.03-15.6 195.83-16.9 195.63-18.2 195.43-19.15L195.43-19.15Q195.28-18.2 195.03-16.95 194.78-15.7 194.53-14.3 194.28-12.9 194.03-11.38 193.78-9.85 193.47-8.45L193.47-8.45Q192.83-5.1 192.08-1.45L192.08-1.45ZM223.67-2.45L207.52 0.05 214.07-35.5 229.87-36.85Q229.52-35.75 229.27-34.6L229.27-34.6Q229.02-33.65 228.8-32.63 228.57-31.6 228.42-30.8L228.42-30.8Q227.92-30.75 227-30.73 226.07-30.7 225.02-30.68 223.97-30.65 222.9-30.65 221.82-30.65 221.02-30.65L221.02-30.65 219.27-21.7Q220.82-21.8 222.17-21.85L222.17-21.85Q223.27-21.9 224.42-21.9 225.57-21.9 226.12-21.95L226.12-21.95Q225.92-20.55 225.75-19.2 225.57-17.85 225.32-16.45L225.32-16.45Q224.82-16.4 223.7-16.38 222.57-16.35 221.42-16.3L221.42-16.3Q220.12-16.25 218.57-16.2L218.57-16.2 216.87-7 224.17-8.15 223.67-2.45ZM246.32-12.35Q246.32-9.55 245.25-7.28 244.17-5 242.35-3.35 240.52-1.7 238.05-0.8 235.57 0.1 232.72 0.1L232.72 0.1Q230.72 0.1 228.72-0.98 226.72-2.05 224.87-4.4L224.87-4.4 228.57-11.65Q228.92-11 229.62-10.33 230.32-9.65 231.2-9.15 232.07-8.65 232.95-8.33 233.82-8 234.52-8L234.52-8Q235.12-8 235.77-8.2 236.42-8.4 236.97-8.8 237.52-9.2 237.85-9.73 238.17-10.25 238.17-10.95L238.17-10.95Q238.17-12.15 237.4-13.18 236.62-14.2 235.47-15.13 234.32-16.05 232.97-17 231.62-17.95 230.5-19 229.37-20.05 228.57-21.35 227.77-22.65 227.77-24.25L227.77-24.25Q227.77-26.85 229.32-29.1 230.87-31.35 233.2-32.98 235.52-34.6 238.27-35.55 241.02-36.5 243.47-36.5L243.47-36.5Q244.82-36.5 246.02-36.18 247.22-35.85 248.1-35.13 248.97-34.4 249.5-33.3 250.02-32.2 250.02-30.55L250.02-30.55Q250.02-29.85 249.9-29.15 249.77-28.45 249.67-27.65L249.67-27.65 242.42-25.55Q242.52-25.95 242.6-26.35 242.67-26.75 242.67-27.15L242.67-27.15Q242.67-28.65 242.15-29.33 241.62-30 240.77-30L240.77-30Q240.37-30 239.8-29.7 239.22-29.4 238.65-28.93 238.07-28.45 237.67-27.8 237.27-27.15 237.27-26.4L237.27-26.4Q237.27-25.2 237.95-24.4 238.62-23.6 239.62-22.9 240.62-22.2 241.8-21.48 242.97-20.75 243.97-19.6 244.97-18.45 245.65-16.73 246.32-15 246.32-12.35L246.32-12.35ZM262.22-2.45L246.07 0.05 252.62-35.5 268.42-36.85Q268.07-35.75 267.82-34.6L267.82-34.6Q267.57-33.65 267.34-32.63 267.12-31.6 266.97-30.8L266.97-30.8Q266.47-30.75 265.54-30.73 264.62-30.7 263.57-30.68 262.52-30.65 261.44-30.65 260.37-30.65 259.57-30.65L259.57-30.65 257.82-21.7Q259.37-21.8 260.72-21.85L260.72-21.85Q261.82-21.9 262.97-21.9 264.12-21.9 264.67-21.95L264.67-21.95Q264.47-20.55 264.29-19.2 264.12-17.85 263.87-16.45L263.87-16.45Q263.37-16.4 262.24-16.38 261.12-16.35 259.97-16.3L259.97-16.3Q258.67-16.25 257.12-16.2L257.12-16.2 255.42-7 262.72-8.15 262.22-2.45ZM286.26-1.6Q284.71-1.6 282.99-1.5 281.26-1.4 279.51-1.2 277.76-1 276.09-0.68 274.41-0.35 273.06 0.1L273.06 0.1Q273.36-2.15 273.76-4.9 274.16-7.65 274.69-10.6 275.21-13.55 275.74-16.55 276.26-19.55 276.81-22.3L276.81-22.3Q278.06-28.85 279.46-35.65L279.46-35.65 288.21-36.8Q286.86-31 285.61-25.5L285.61-25.5Q285.06-23.15 284.51-20.63 283.96-18.1 283.46-15.7 282.96-13.3 282.56-11.05 282.16-8.8 281.91-7.05L281.91-7.05Q283.16-7.15 284.59-7.18 286.01-7.2 287.11-7.2L287.11-7.2Q287.16-6.25 287.26-5.33 287.36-4.4 287.49-3.65 287.61-2.9 287.69-2.33 287.76-1.75 287.81-1.55L287.81-1.55Q287.41-1.55 287.04-1.58 286.66-1.6 286.26-1.6L286.26-1.6ZM305.96-1Q304.71-0.8 303.21-0.55 301.71-0.3 300.51-0.1L300.51-0.1Q300.71-1.75 300.91-3.35L300.91-3.35Q301.06-4.75 301.19-6.15 301.31-7.55 301.41-8.55L301.41-8.55 297.06-8.55 295.06-1.35Q293.96-1.2 292.46-1.03 290.96-0.85 289.66-0.7L289.66-0.7Q288.06-0.5 286.51-0.3L286.51-0.3Q288.51-6.95 290.46-13.4L290.46-13.4Q291.26-16.1 292.14-19.05 293.01-22 293.89-24.93 294.76-27.85 295.56-30.55 296.36-33.25 296.96-35.5L296.96-35.5Q300.36-35.75 303.89-36.1 307.41-36.45 310.76-37.05L310.76-37.05Q310.61-35.45 310.44-33.08 310.26-30.7 310.11-27.9 309.96-25.1 309.81-22.05 309.66-19 309.51-16.05L309.51-16.05Q309.26-9.15 308.96-1.4L308.96-1.4Q307.46-1.15 305.96-1L305.96-1ZM301.36-26.1L298.26-13.55Q298.46-13.55 298.99-13.58 299.51-13.6 300.09-13.63 300.66-13.65 301.16-13.68 301.66-13.7 301.86-13.75L301.86-13.75Q301.86-14.05 301.94-14.78 302.01-15.5 302.09-16.43 302.16-17.35 302.26-18.45 302.36-19.55 302.46-20.6L302.46-20.6Q302.66-23.15 302.96-26.1L302.96-26.1 303.26-30.45 302.51-30.4 301.36-26.1ZM316.76-1.45L309.46 0.25Q310.96-6.95 312.31-13.7L312.31-13.7Q312.81-16.6 313.38-19.7 313.96-22.8 314.46-25.83 314.96-28.85 315.36-31.63 315.76-34.4 315.96-36.65L315.96-36.65Q316.61-36.6 317.06-36.6 317.51-36.6 318.11-36.6L318.11-36.6Q318.81-36.6 319.81-36.63 320.81-36.65 321.81-36.7 322.81-36.75 323.96-36.8L323.96-36.8Q324.66-33.3 325.21-30.05L325.21-30.05Q325.76-27.2 326.33-24.2 326.91-21.2 327.36-19.1L327.36-19.1Q327.56-20.1 327.81-21.43 328.06-22.75 328.36-24.2 328.66-25.65 328.93-27.13 329.21-28.6 329.51-30.05L329.51-30.05Q330.21-33.3 330.96-36.75L330.96-36.75 337.06-37.5Q335.36-29.85 334.06-23L334.06-23Q333.46-20.05 332.88-17.03 332.31-14 331.81-11.23 331.31-8.45 330.96-6.08 330.61-3.7 330.41-2.1L330.41-2.1Q330.26-2.1 329.23-1.88 328.21-1.65 326.88-1.35 325.56-1.05 324.23-0.75 322.91-0.45 322.26-0.2L322.26-0.2Q321.96-4.2 321.61-7.8L321.61-7.8Q321.46-9.35 321.28-10.98 321.11-12.6 320.91-14.1 320.71-15.6 320.51-16.9 320.31-18.2 320.11-19.15L320.11-19.15Q319.96-18.2 319.71-16.95 319.46-15.7 319.21-14.3 318.96-12.9 318.71-11.38 318.46-9.85 318.16-8.45L318.16-8.45Q317.51-5.1 316.76-1.45L316.76-1.45ZM359.01-19.05Q358.66-13.95 357.01-10.18 355.36-6.4 353.03-3.85 350.71-1.3 348.03-0.05 345.36 1.2 342.96 1.2L342.96 1.2Q341.11 1.2 339.43 0.4 337.76-0.4 336.53-2.02 335.31-3.65 334.61-6.1 333.91-8.55 333.91-11.85L333.91-11.85Q333.91-18.3 335.76-23.1 337.61-27.9 340.43-31.1 343.26-34.3 346.48-35.85 349.71-37.4 352.51-37.4L352.51-37.4Q354.51-37.4 355.98-36.7 357.46-36 358.41-34.83 359.36-33.65 359.78-32.08 360.21-30.5 360.21-28.75L360.21-28.75 353.36-27.45Q352.91-29.45 352.16-30.3 351.41-31.15 350.46-31.15L350.46-31.15Q349.21-31.15 347.71-29.38 346.21-27.6 344.91-24.8 343.61-22 342.71-18.65 341.81-15.3 341.71-12.05L341.71-12.05Q341.71-8.95 342.63-7.63 343.56-6.3 345.01-6.3L345.01-6.3Q346.01-6.3 347.08-6.8 348.16-7.3 349.01-8.22 349.86-9.15 350.43-10.38 351.01-11.6 351.06-13.05L351.06-13.05 345.71-12.25 346.66-17.2Q349.01-17.5 351.26-17.8L351.26-17.8Q353.16-18.05 355.28-18.4 357.41-18.75 359.01-19.05L359.01-19.05ZM377.55-9.75Q376.85-6.9 375.58-4.9 374.3-2.9 372.58-1.6 370.85-0.3 368.9 0.3 366.95 0.9 365 0.9L365 0.9Q363.85 0.9 362.65 0.53 361.45 0.15 360.5-0.6 359.55-1.35 358.93-2.5 358.3-3.65 358.3-5.2L358.3-5.2Q358.3-5.4 358.3-5.6 358.3-5.8 358.35-6L358.35-6Q358.55-8.05 359-10.95 359.45-13.85 359.95-17 360.45-20.15 361.05-23.33 361.65-26.5 362.13-29.1 362.6-31.7 362.95-33.43 363.3-35.15 363.4-35.55L363.4-35.55Q364.45-35.65 365.9-35.8 367.35-35.95 368.6-36.05L368.6-36.05Q370.15-36.2 371.65-36.35L371.65-36.35Q370.35-30.3 369.35-25.4L369.35-25.4Q368.9-23.3 368.48-21.2 368.05-19.1 367.68-17.35 367.3-15.6 367.03-14.33 366.75-13.05 366.58-12.25 366.4-11.45 366.18-10.23 365.95-9 365.95-8L365.95-8Q365.95-7.2 366.35-6.68 366.75-6.15 367.35-6.15L367.35-6.15Q368.2-6.15 368.75-6.83 369.3-7.5 369.68-8.45 370.05-9.4 370.23-10.38 370.4-11.35 370.55-11.9L370.55-11.9Q370.85-13.35 371.23-15.13 371.6-16.9 371.98-18.82 372.35-20.75 372.73-22.75 373.1-24.75 373.45-26.65L373.45-26.65Q374.3-31.05 375.1-35.75L375.1-35.75 382.7-36.25Q382.7-36.25 382.45-34.95 382.2-33.65 381.8-31.5 381.4-29.35 380.93-26.6 380.45-23.85 379.85-20.88 379.25-17.9 378.68-15.03 378.1-12.15 377.55-9.75L377.55-9.75ZM396.1-1Q394.85-0.8 393.35-0.55 391.85-0.3 390.65-0.1L390.65-0.1Q390.85-1.75 391.05-3.35L391.05-3.35Q391.2-4.75 391.33-6.15 391.45-7.55 391.55-8.55L391.55-8.55 387.2-8.55 385.2-1.35Q384.1-1.2 382.6-1.03 381.1-0.85 379.8-0.7L379.8-0.7Q378.2-0.5 376.65-0.3L376.65-0.3Q378.65-6.95 380.6-13.4L380.6-13.4Q381.4-16.1 382.28-19.05 383.15-22 384.03-24.93 384.9-27.85 385.7-30.55 386.5-33.25 387.1-35.5L387.1-35.5Q390.5-35.75 394.03-36.1 397.55-36.45 400.9-37.05L400.9-37.05Q400.75-35.45 400.58-33.08 400.4-30.7 400.25-27.9 400.1-25.1 399.95-22.05 399.8-19 399.65-16.05L399.65-16.05Q399.4-9.15 399.1-1.4L399.1-1.4Q397.6-1.15 396.1-1L396.1-1ZM391.5-26.1L388.4-13.55Q388.6-13.55 389.13-13.58 389.65-13.6 390.23-13.63 390.8-13.65 391.3-13.68 391.8-13.7 392-13.75L392-13.75Q392-14.05 392.08-14.78 392.15-15.5 392.23-16.43 392.3-17.35 392.4-18.45 392.5-19.55 392.6-20.6L392.6-20.6Q392.8-23.15 393.1-26.1L393.1-26.1 393.4-30.45 392.65-30.4 391.5-26.1ZM426.55-19.05Q426.2-13.95 424.55-10.18 422.9-6.4 420.57-3.85 418.25-1.3 415.57-0.05 412.9 1.2 410.5 1.2L410.5 1.2Q408.65 1.2 406.97 0.4 405.3-0.4 404.07-2.02 402.85-3.65 402.15-6.1 401.45-8.55 401.45-11.85L401.45-11.85Q401.45-18.3 403.3-23.1 405.15-27.9 407.97-31.1 410.8-34.3 414.02-35.85 417.25-37.4 420.05-37.4L420.05-37.4Q422.05-37.4 423.52-36.7 425-36 425.95-34.83 426.9-33.65 427.32-32.08 427.75-30.5 427.75-28.75L427.75-28.75 420.9-27.45Q420.45-29.45 419.7-30.3 418.95-31.15 418-31.15L418-31.15Q416.75-31.15 415.25-29.38 413.75-27.6 412.45-24.8 411.15-22 410.25-18.65 409.35-15.3 409.25-12.05L409.25-12.05Q409.25-8.95 410.17-7.63 411.1-6.3 412.55-6.3L412.55-6.3Q413.55-6.3 414.62-6.8 415.7-7.3 416.55-8.22 417.4-9.15 417.97-10.38 418.55-11.6 418.6-13.05L418.6-13.05 413.25-12.25 414.2-17.2Q416.55-17.5 418.8-17.8L418.8-17.8Q420.7-18.05 422.82-18.4 424.95-18.75 426.55-19.05L426.55-19.05ZM440.85-2.45L424.69 0.05 431.25-35.5 447.05-36.85Q446.69-35.75 446.44-34.6L446.44-34.6Q446.19-33.65 445.97-32.63 445.75-31.6 445.6-30.8L445.6-30.8Q445.1-30.75 444.17-30.73 443.25-30.7 442.19-30.68 441.15-30.65 440.07-30.65 439-30.65 438.19-30.65L438.19-30.65 436.44-21.7Q438-21.8 439.35-21.85L439.35-21.85Q440.44-21.9 441.6-21.9 442.75-21.9 443.3-21.95L443.3-21.95Q443.1-20.55 442.92-19.2 442.75-17.85 442.5-16.45L442.5-16.45Q442-16.4 440.87-16.38 439.75-16.35 438.6-16.3L438.6-16.3Q437.3-16.25 435.75-16.2L435.75-16.2 434.05-7 441.35-8.15 440.85-2.45ZM458.99-1Q458.54-1 457.24-0.88 455.94-0.75 454.54-0.58 453.14-0.4 452.02-0.25 450.89-0.1 450.79-0.05L450.79-0.05Q451.39-2.2 451.99-4.83 452.59-7.45 453.22-10.33 453.84-13.2 454.42-16.15 454.99-19.1 455.54-21.85L455.54-21.85Q456.79-28.25 457.99-35L457.99-35 465.79-36.25Q464.49-29.55 463.19-23.1L463.19-23.1Q462.64-20.35 462.07-17.4 461.49-14.45 460.97-11.55 460.44-8.65 459.92-5.93 459.39-3.2 458.99-1L458.99-1ZM468.64-1.45L461.34 0.25Q462.84-6.95 464.19-13.7L464.19-13.7Q464.69-16.6 465.26-19.7 465.84-22.8 466.34-25.83 466.84-28.85 467.24-31.63 467.64-34.4 467.84-36.65L467.84-36.65Q468.49-36.6 468.94-36.6 469.39-36.6 469.99-36.6L469.99-36.6Q470.69-36.6 471.69-36.63 472.69-36.65 473.69-36.7 474.69-36.75 475.84-36.8L475.84-36.8Q476.54-33.3 477.09-30.05L477.09-30.05Q477.64-27.2 478.21-24.2 478.79-21.2 479.24-19.1L479.24-19.1Q479.44-20.1 479.69-21.43 479.94-22.75 480.24-24.2 480.54-25.65 480.81-27.13 481.09-28.6 481.39-30.05L481.39-30.05Q482.09-33.3 482.84-36.75L482.84-36.75 488.94-37.5Q487.24-29.85 485.94-23L485.94-23Q485.34-20.05 484.76-17.03 484.19-14 483.69-11.23 483.19-8.45 482.84-6.08 482.49-3.7 482.29-2.1L482.29-2.1Q482.14-2.1 481.11-1.88 480.09-1.65 478.76-1.35 477.44-1.05 476.11-0.75 474.79-0.45 474.14-0.2L474.14-0.2Q473.84-4.2 473.49-7.8L473.49-7.8Q473.34-9.35 473.16-10.98 472.99-12.6 472.79-14.1 472.59-15.6 472.39-16.9 472.19-18.2 471.99-19.15L471.99-19.15Q471.84-18.2 471.59-16.95 471.34-15.7 471.09-14.3 470.84-12.9 470.59-11.38 470.34-9.85 470.04-8.45L470.04-8.45Q469.39-5.1 468.64-1.45L468.64-1.45ZM501.58-1.5L493.88 0.1Q495.18-6.8 496.43-13.45L496.43-13.45Q496.88-16.25 497.43-19.28 497.98-22.3 498.48-25.25 498.98-28.2 499.43-30.98 499.88-33.75 500.23-36.05L500.23-36.05 508.33-36.6Q507.48-33.1 506.66-29.3 505.83-25.5 505.13-21.9L505.13-21.9 510.08-22.45Q510.78-26 511.33-29.33 511.88-32.65 512.78-36.2L512.78-36.2Q513.93-36.4 515.33-36.52 516.73-36.65 517.93-36.75 519.13-36.85 519.96-36.93 520.78-37 520.78-37L520.78-37Q520.08-34.75 519.46-32.08 518.83-29.4 518.23-26.53 517.63-23.65 517.08-20.7 516.53-17.75 516.08-15.1L516.08-15.1Q514.98-8.75 514.03-2.1L514.03-2.1 506.23-1.2Q506.88-4.2 507.38-7.05L507.38-7.05Q507.88-9.45 508.41-12.05 508.93-14.65 509.23-16.5L509.23-16.5 504.38-16.05Q504.03-14.15 503.56-11.65 503.08-9.15 502.68-6.9L502.68-6.9Q502.13-4.2 501.58-1.5L501.58-1.5ZM524.03-1Q523.58-1 522.25-0.88 520.93-0.75 519.53-0.58 518.13-0.4 517-0.25 515.88-0.1 515.78-0.05L515.78-0.05Q516.28-2.2 516.8-4.83 517.33-7.45 517.88-10.33 518.43-13.2 518.93-16.15 519.43-19.1 519.88-21.85L519.88-21.85Q520.93-28.25 521.98-35L521.98-35 529.78-36.25Q528.63-29.55 527.53-23.1L527.53-23.1Q527.08-20.35 526.61-17.4 526.13-14.45 525.65-11.55 525.18-8.65 524.78-5.93 524.38-3.2 524.03-1L524.03-1ZM533.18-1.45L525.88 0.25Q527.38-6.95 528.73-13.7L528.73-13.7Q529.23-16.6 529.8-19.7 530.38-22.8 530.88-25.83 531.38-28.85 531.78-31.63 532.18-34.4 532.38-36.65L532.38-36.65Q533.03-36.6 533.48-36.6 533.93-36.6 534.53-36.6L534.53-36.6Q535.23-36.6 536.23-36.63 537.23-36.65 538.23-36.7 539.23-36.75 540.38-36.8L540.38-36.8Q541.08-33.3 541.63-30.05L541.63-30.05Q542.18-27.2 542.75-24.2 543.33-21.2 543.78-19.1L543.78-19.1Q543.98-20.1 544.23-21.43 544.48-22.75 544.78-24.2 545.08-25.65 545.35-27.13 545.63-28.6 545.93-30.05L545.93-30.05Q546.63-33.3 547.38-36.75L547.38-36.75 553.48-37.5Q551.78-29.85 550.48-23L550.48-23Q549.88-20.05 549.3-17.03 548.73-14 548.23-11.23 547.73-8.45 547.38-6.08 547.03-3.7 546.83-2.1L546.83-2.1Q546.68-2.1 545.65-1.88 544.63-1.65 543.3-1.35 541.98-1.05 540.65-0.75 539.33-0.45 538.68-0.2L538.68-0.2Q538.38-4.2 538.03-7.8L538.03-7.8Q537.88-9.35 537.7-10.98 537.53-12.6 537.33-14.1 537.13-15.6 536.93-16.9 536.73-18.2 536.53-19.15L536.53-19.15Q536.38-18.2 536.13-16.95 535.88-15.7 535.63-14.3 535.38-12.9 535.13-11.38 534.88-9.85 534.58-8.45L534.58-8.45Q533.93-5.1 533.18-1.45L533.18-1.45ZM573.67-25.55Q573.67-22.95 572.92-20.03 572.17-17.1 570.82-14.23 569.47-11.35 567.5-8.72 565.52-6.1 563.02-4.13 560.52-2.15 557.55-0.95 554.57 0.25 551.22 0.25L551.22 0.25Q550.52 0.25 549.82 0.18 549.12 0.1 548.42 0L548.42 0Q549.77-6.9 551.07-13.45L551.07-13.45Q551.57-16.2 552.12-19.18 552.67-22.15 553.17-25.05 553.67-27.95 554.15-30.6 554.62-33.25 554.92-35.4L554.92-35.4Q557.07-35.8 559.27-36.15 561.47-36.5 563.77-36.5L563.77-36.5Q566.47-36.5 568.35-35.65 570.22-34.8 571.4-33.3 572.57-31.8 573.12-29.8 573.67-27.8 573.67-25.55L573.67-25.55ZM561.87-29.45Q561.32-26.5 560.72-23.8 560.12-21.1 559.52-18.35 558.92-15.6 558.32-12.6 557.72-9.6 557.17-6.05L557.17-6.05Q558.37-6.85 559.5-8.22 560.62-9.6 561.62-11.4 562.62-13.2 563.45-15.2 564.27-17.2 564.87-19.1 565.47-21 565.8-22.65 566.12-24.3 566.12-25.5L566.12-25.5Q566.12-27.35 565.1-28.4 564.07-29.45 561.87-29.45L561.87-29.45ZM578.77-1Q578.32-1 577-0.88 575.67-0.75 574.27-0.58 572.87-0.4 571.75-0.25 570.62-0.1 570.52-0.05L570.52-0.05Q571.02-2.2 571.55-4.83 572.07-7.45 572.62-10.33 573.17-13.2 573.67-16.15 574.17-19.1 574.62-21.85L574.62-21.85Q575.67-28.25 576.72-35L576.72-35 584.52-36.25Q583.37-29.55 582.27-23.1L582.27-23.1Q581.82-20.35 581.35-17.4 580.87-14.45 580.4-11.55 579.92-8.65 579.52-5.93 579.12-3.2 578.77-1L578.77-1ZM608.52-1Q607.27-0.8 605.77-0.55 604.27-0.3 603.07-0.1L603.07-0.1Q603.27-1.75 603.47-3.35L603.47-3.35Q603.62-4.75 603.74-6.15 603.87-7.55 603.97-8.55L603.97-8.55 599.62-8.55 597.62-1.35Q596.52-1.2 595.02-1.03 593.52-0.85 592.22-0.7L592.22-0.7Q590.62-0.5 589.07-0.3L589.07-0.3Q591.07-6.95 593.02-13.4L593.02-13.4Q593.82-16.1 594.69-19.05 595.57-22 596.44-24.93 597.32-27.85 598.12-30.55 598.92-33.25 599.52-35.5L599.52-35.5Q602.92-35.75 606.44-36.1 609.97-36.45 613.32-37.05L613.32-37.05Q613.17-35.45 612.99-33.08 612.82-30.7 612.67-27.9 612.52-25.1 612.37-22.05 612.22-19 612.07-16.05L612.07-16.05Q611.82-9.15 611.52-1.4L611.52-1.4Q610.02-1.15 608.52-1L608.52-1ZM603.92-26.1L600.82-13.55Q601.02-13.55 601.54-13.58 602.07-13.6 602.64-13.63 603.22-13.65 603.72-13.68 604.22-13.7 604.42-13.75L604.42-13.75Q604.42-14.05 604.49-14.78 604.57-15.5 604.64-16.43 604.72-17.35 604.82-18.45 604.92-19.55 605.02-20.6L605.02-20.6Q605.22-23.15 605.52-26.1L605.52-26.1 605.82-30.45 605.07-30.4 603.92-26.1ZM619.31-1.45L612.01 0.25Q613.51-6.95 614.86-13.7L614.86-13.7Q615.36-16.6 615.94-19.7 616.51-22.8 617.01-25.83 617.51-28.85 617.91-31.63 618.31-34.4 618.51-36.65L618.51-36.65Q619.16-36.6 619.61-36.6 620.06-36.6 620.66-36.6L620.66-36.6Q621.36-36.6 622.36-36.63 623.36-36.65 624.36-36.7 625.36-36.75 626.51-36.8L626.51-36.8Q627.21-33.3 627.76-30.05L627.76-30.05Q628.31-27.2 628.89-24.2 629.46-21.2 629.91-19.1L629.91-19.1Q630.11-20.1 630.36-21.43 630.61-22.75 630.91-24.2 631.21-25.65 631.49-27.13 631.76-28.6 632.06-30.05L632.06-30.05Q632.76-33.3 633.51-36.75L633.51-36.75 639.61-37.5Q637.91-29.85 636.61-23L636.61-23Q636.01-20.05 635.44-17.03 634.86-14 634.36-11.23 633.86-8.45 633.51-6.08 633.16-3.7 632.96-2.1L632.96-2.1Q632.81-2.1 631.79-1.88 630.76-1.65 629.44-1.35 628.11-1.05 626.79-0.75 625.46-0.45 624.81-0.2L624.81-0.2Q624.51-4.2 624.16-7.8L624.16-7.8Q624.01-9.35 623.84-10.98 623.66-12.6 623.46-14.1 623.26-15.6 623.06-16.9 622.86-18.2 622.66-19.15L622.66-19.15Q622.51-18.2 622.26-16.95 622.01-15.7 621.76-14.3 621.51-12.9 621.26-11.38 621.01-9.85 620.71-8.45L620.71-8.45Q620.06-5.1 619.31-1.45L619.31-1.45ZM659.81-25.55Q659.81-22.95 659.06-20.03 658.31-17.1 656.96-14.23 655.61-11.35 653.64-8.72 651.66-6.1 649.16-4.13 646.66-2.15 643.69-0.95 640.71 0.25 637.36 0.25L637.36 0.25Q636.66 0.25 635.96 0.18 635.26 0.1 634.56 0L634.56 0Q635.91-6.9 637.21-13.45L637.21-13.45Q637.71-16.2 638.26-19.18 638.81-22.15 639.31-25.05 639.81-27.95 640.29-30.6 640.76-33.25 641.06-35.4L641.06-35.4Q643.21-35.8 645.41-36.15 647.61-36.5 649.91-36.5L649.91-36.5Q652.61-36.5 654.49-35.65 656.36-34.8 657.54-33.3 658.71-31.8 659.26-29.8 659.81-27.8 659.81-25.55L659.81-25.55ZM648.01-29.45Q647.46-26.5 646.86-23.8 646.26-21.1 645.66-18.35 645.06-15.6 644.46-12.6 643.86-9.6 643.31-6.05L643.31-6.05Q644.51-6.85 645.64-8.22 646.76-9.6 647.76-11.4 648.76-13.2 649.59-15.2 650.41-17.2 651.01-19.1 651.61-21 651.94-22.65 652.26-24.3 652.26-25.5L652.26-25.5Q652.26-27.35 651.24-28.4 650.21-29.45 648.01-29.45L648.01-29.45ZM679.66-1.35L670.66 0.05Q671.81-5.45 672.86-10.8L672.86-10.8Q673.31-13.05 673.76-15.5 674.21-17.95 674.63-20.33 675.06-22.7 675.38-24.93 675.71-27.15 675.96-29L675.96-29Q674.81-29.15 673.63-29.1 672.46-29.05 671.31-29.4L671.31-29.4Q671.36-30.2 671.36-31.25 671.36-32.3 671.41-33.35L671.41-33.35Q671.46-34.5 671.51-35.8L671.51-35.8Q672.81-35.7 674.11-35.65 675.41-35.6 676.71-35.6L676.71-35.6Q679.26-35.6 681.63-35.73 684.01-35.85 686.03-36.02 688.06-36.2 690.01-36.45L690.01-36.45 689.46-33.75Q689.21-32.6 688.98-31.4 688.76-30.2 688.56-29.35L688.56-29.35Q687.46-29.05 686.33-28.93 685.21-28.8 684.11-28.6L684.11-28.6Q683.76-26.9 683.36-24.83 682.96-22.75 682.58-20.53 682.21-18.3 681.86-16 681.51-13.7 681.16-11.6L681.16-11.6Q680.36-6.65 679.66-1.35L679.66-1.35ZM702.65-1Q701.4-0.8 699.9-0.55 698.4-0.3 697.2-0.1L697.2-0.1Q697.4-1.75 697.6-3.35L697.6-3.35Q697.75-4.75 697.88-6.15 698-7.55 698.1-8.55L698.1-8.55 693.75-8.55 691.75-1.35Q690.65-1.2 689.15-1.03 687.65-0.85 686.35-0.7L686.35-0.7Q684.75-0.5 683.2-0.3L683.2-0.3Q685.2-6.95 687.15-13.4L687.15-13.4Q687.95-16.1 688.83-19.05 689.7-22 690.58-24.93 691.45-27.85 692.25-30.55 693.05-33.25 693.65-35.5L693.65-35.5Q697.05-35.75 700.58-36.1 704.1-36.45 707.45-37.05L707.45-37.05Q707.3-35.45 707.13-33.08 706.95-30.7 706.8-27.9 706.65-25.1 706.5-22.05 706.35-19 706.2-16.05L706.2-16.05Q705.95-9.15 705.65-1.4L705.65-1.4Q704.15-1.15 702.65-1L702.65-1ZM698.05-26.1L694.95-13.55Q695.15-13.55 695.68-13.58 696.2-13.6 696.78-13.63 697.35-13.65 697.85-13.68 698.35-13.7 698.55-13.75L698.55-13.75Q698.55-14.05 698.63-14.78 698.7-15.5 698.78-16.43 698.85-17.35 698.95-18.45 699.05-19.55 699.15-20.6L699.15-20.6Q699.35-23.15 699.65-26.1L699.65-26.1 699.95-30.45 699.2-30.4 698.05-26.1ZM712.65-0.85L704.4-0.3Q706.6-6.95 708.6-13.35L708.6-13.35Q709.45-16.05 710.35-19 711.25-21.95 712.15-24.85 713.05-27.75 713.83-30.45 714.6-33.15 715.2-35.45L715.2-35.45Q717.95-35.45 720.4-35.75 722.85-36.05 725.7-36.3L725.7-36.3Q725.55-35.2 725.38-33.83 725.2-32.45 724.98-30.95 724.75-29.45 724.5-27.85 724.25-26.25 723.9-23.75 723.55-21.25 722.95-17.5L722.95-17.5 723.6-17.5Q725.05-21.3 726-23.83 726.95-26.35 727.55-27.95 728.15-29.55 728.78-31.08 729.4-32.6 729.98-33.98 730.55-35.35 731.05-36.4L731.05-36.4Q732.3-36.5 733.4-36.65 734.5-36.8 735.6-36.98 736.7-37.15 737.83-37.33 738.95-37.5 740.3-37.75L740.3-37.75Q739.8-34.85 739.35-31.8 738.9-28.75 738.55-25.73 738.2-22.7 737.88-19.75 737.55-16.8 737.3-14.15L737.3-14.15Q736.7-7.95 736.25-2.05L736.25-2.05 727.55-0.5Q727.55-0.75 727.63-1.85 727.7-2.95 727.83-4.55 727.95-6.15 728.18-8.1 728.4-10.05 728.63-12 728.85-13.95 729.1-15.78 729.35-17.6 729.6-18.9L729.6-18.9 729.15-18.9Q728.45-16.8 727.6-14.48 726.75-12.15 725.88-9.75 725-7.35 724.15-5.05 723.3-2.75 722.65-0.65L722.65-0.65Q720.9-0.6 719.65-0.53 718.4-0.45 716.75-0.35L716.75-0.35 718.35-18.9 717.6-18.9Q717.5-18.25 717.1-16.73 716.7-15.2 716.18-13.23 715.65-11.25 715.05-9.13 714.45-7 713.93-5.18 713.4-3.35 713.05-2.18 712.7-1 712.65-0.85L712.65-0.85ZM745.35-1Q744.9-1 743.57-0.88 742.25-0.75 740.85-0.58 739.45-0.4 738.32-0.25 737.2-0.1 737.1-0.05L737.1-0.05Q737.6-2.2 738.12-4.83 738.65-7.45 739.2-10.33 739.75-13.2 740.25-16.15 740.75-19.1 741.2-21.85L741.2-21.85Q742.25-28.25 743.3-35L743.3-35 751.1-36.25Q749.95-29.55 748.85-23.1L748.85-23.1Q748.4-20.35 747.92-17.4 747.45-14.45 746.97-11.55 746.5-8.65 746.1-5.93 745.7-3.2 745.35-1L745.35-1ZM760.75-1.6Q759.2-1.6 757.47-1.5 755.75-1.4 754-1.2 752.25-1 750.57-0.68 748.9-0.35 747.55 0.1L747.55 0.1Q747.85-2.15 748.25-4.9 748.65-7.65 749.17-10.6 749.7-13.55 750.22-16.55 750.75-19.55 751.3-22.3L751.3-22.3Q752.55-28.85 753.95-35.65L753.95-35.65 762.7-36.8Q761.35-31 760.1-25.5L760.1-25.5Q759.55-23.15 759-20.63 758.45-18.1 757.95-15.7 757.45-13.3 757.05-11.05 756.65-8.8 756.4-7.05L756.4-7.05Q757.65-7.15 759.07-7.18 760.5-7.2 761.6-7.2L761.6-7.2Q761.65-6.25 761.75-5.33 761.85-4.4 761.97-3.65 762.1-2.9 762.17-2.33 762.25-1.75 762.3-1.55L762.3-1.55Q761.9-1.55 761.52-1.58 761.15-1.6 760.75-1.6L760.75-1.6Z" opacity="1" transform="matrix(1,0,0,1,0,0)" fill="#755bb4" class="undefined-text-1" data-fill-palette-color="secondary" id="text-1"></path></svg></g></svg></g></svg></g></svg></g><g><svg viewBox="0 0 245.65351679999995 245.57251849108775" height="245.57251849108775" width="245.65351679999995"><g><svg xmlns="http://www.w3.org/2000/svg" xmlns:xlink="http://www.w3.org/1999/xlink" version="1.1" x="0" y="0" viewBox="17.965627670288086 18.015625 63.978233337402344 63.95713806152344" style="enable-background:new 0 0 100 100;" xml:space="preserve" height="245.57251849108775" width="245.65351679999995" class="icon-icon-0" data-fill-palette-color="accent" id="icon-0"><g fill="#755bb4" data-fill-palette-color="accent"><path d="M47.8 18.1c4.1-0.3 8.2 0.2 12.1 1.5 5.9 1.9 11.1 5.6 15 10.4 2.9 3.6 5 7.8 6.1 12.3 1.1 4.3 1.2 8.8 0.5 13.1-1.1 6.6-4.4 12.8-9.2 17.5-4.9 4.8-11.5 8-18.3 8.8-4.4 0.6-8.9 0.2-13.2-1.1-4.5-1.3-8.6-3.6-12.1-6.7-4.6-4.1-8-9.5-9.6-15.5-1.1-3.9-1.4-8-0.9-12 0.4-3.8 1.5-7.5 3.2-10.8C24.6 29.2 30 24 36.4 21 39.9 19.3 43.8 18.3 47.8 18.1M48.4 31c-4.4 0.3-8.6 2.3-11.7 5.4-2.2 2.1-3.8 4.8-4.7 7.7-1.1 3.4-1.2 7.2-0.3 10.7 0.7 2.7 2 5.2 3.8 7.4 1.9 2.2 4.3 4 6.9 5.2 4.6 2 9.9 2.1 14.6 0.3 4.1-1.6 7.6-4.7 9.7-8.6 2.4-4.3 3-9.5 1.6-14.2-0.7-2.5-1.9-4.8-3.5-6.8-1.9-2.3-4.3-4.2-7-5.4C54.9 31.2 51.6 30.7 48.4 31z" fill="#755bb4" data-fill-palette-color="accent"></path><path d="M48.4 35.8c0.4-0.5 0.8-1 1.4-1.2 0.5-0.1 1 0.2 1.4 0.5 0.7 0.7 1.2 1.6 1.6 2.4 0.4 0.8 0.6 1.6 0.9 2.4-2.4 0.5-4.9 0.5-7.3 0C46.9 38.5 47.4 37.1 48.4 35.8z" fill="#755bb4" data-fill-palette-color="accent"></path><path d="M40.3 37.5c1.4-1.1 3.1-2 4.8-2.6-0.8 1.3-1.3 2.7-1.8 4.2C42.3 38.6 41.3 38.1 40.3 37.5z" fill="#755bb4" data-fill-palette-color="accent"></path><path d="M54.9 34.9c1.7 0.6 3.4 1.5 4.8 2.6-1 0.6-2 1.2-3 1.6C56.3 37.6 55.7 36.2 54.9 34.9z" fill="#755bb4" data-fill-palette-color="accent"></path><path d="M34.4 48.3c0.3-3.1 1.6-6.1 3.6-8.5 1.4 1 3 1.8 4.6 2.5-0.4 2-0.6 4-0.7 6.1C39.4 48.3 36.9 48.3 34.4 48.3z" fill="#755bb4" data-fill-palette-color="accent"></path><path d="M57.5 42.2c1.6-0.6 3.2-1.5 4.6-2.5 2 2.4 3.3 5.4 3.6 8.5-2.5 0-5 0-7.6 0C58.1 46.2 57.9 44.2 57.5 42.2z" fill="#755bb4" data-fill-palette-color="accent"></path><path d="M45.7 43.1c2.9 0.6 5.9 0.6 8.7 0 0.3 1.7 0.5 3.4 0.5 5.1-3.3 0-6.6 0-9.8 0C45.2 46.5 45.4 44.8 45.7 43.1z" fill="#755bb4" data-fill-palette-color="accent"></path><path d="M34.4 51.5c2.5 0 5 0 7.6 0 0.1 1.8 0.2 3.6 0.5 5.3-1.7 0.7-3.3 1.7-4.8 2.8C35.8 57.3 34.6 54.4 34.4 51.5z" fill="#755bb4" data-fill-palette-color="accent"></path><path d="M45.1 51.5c3.3 0 6.6 0 9.8 0-0.1 1.5-0.2 2.9-0.4 4.3-3-0.7-6.1-0.7-9 0C45.3 54.4 45.2 52.9 45.1 51.5z" fill="#755bb4" data-fill-palette-color="accent"></path><path d="M58.2 51.5c2.5 0 5 0 7.6 0-0.3 3-1.5 5.8-3.3 8.2-1.5-1.2-3.1-2.1-4.8-2.8C57.9 55 58.1 53.3 58.2 51.5z" fill="#755bb4" data-fill-palette-color="accent"></path><path d="M46.2 58.9c2.5-0.6 5.2-0.6 7.7 0-0.3 1.2-0.8 2.5-1.3 3.6-0.4 0.7-0.8 1.5-1.5 2-0.4 0.3-0.9 0.6-1.4 0.4-0.7-0.3-1.2-0.9-1.6-1.4C47.2 62.2 46.6 60.6 46.2 58.9z" fill="#755bb4" data-fill-palette-color="accent"></path><path d="M39.9 61.9c1-0.8 2.1-1.4 3.2-2 0.5 1.7 1.1 3.4 2 4.9C43.2 64.2 41.4 63.2 39.9 61.9z" fill="#755bb4" data-fill-palette-color="accent"></path><path d="M56.9 60c1.2 0.5 2.2 1.2 3.2 2-1.5 1.3-3.3 2.3-5.2 2.9C55.9 63.4 56.5 61.7 56.9 60z" fill="#755bb4" data-fill-palette-color="accent"></path></g></svg></g></svg></g></svg></g><defs></defs></svg><rect width="395.52" height="145.40998034313895" fill="none" stroke="none" visibility="hidden"></rect></g></svg></g></svg>